<?xml version="1.0" encoding="UTF-8" standalone="no" ?>
<!DOCTYPE svg PUBLIC "-//W3C//DTD SVG 1.1//EN" "http://www.w3.org/Graphics/SVG/1.1/DTD/svg11.dtd">
<svg xmlns="http://www.w3.org/2000/svg" xmlns:xlink="http://www.w3.org/1999/xlink" version="1.1" width="400" height="400" viewBox="0 0 400 400" xml:space="preserve">
<desc>Created with Fabric.js 3.6.2</desc>
<defs>
</defs>
<g transform="matrix(0.39 0 0 0.39 200 200)"  >
<linearGradient id="SVGID__lgradient_28_21" gradientUnits="userSpaceOnUse" gradientTransform="matrix(512 0 0 512 -2176 1152)"  x1="0" y1="0.5" x2="1" y2="0.5">
<stop offset="1.3043478260869565%" style="stop-color:rgb(204,158,112);stop-opacity: 1"/>
<stop offset="50.8695652173913%" style="stop-color:rgb(195,40,105);stop-opacity: 1"/>
<stop offset="97.3913043478261%" style="stop-color:rgb(75,12,119);stop-opacity: 1"/>
</linearGradient>
<path style="stroke: none; stroke-width: 1; stroke-dasharray: none; stroke-linecap: butt; stroke-dashoffset: 0; stroke-linejoin: miter; stroke-miterlimit: 4; fill: url(#SVGID__lgradient_28_21); fill-rule: nonzero; opacity: 1;"  transform=" translate(1920, -1408)" d="M -2030.08 1152 L -1809.92 1152 C -1729.3846 1152 -1664 1217.3846 -1664 1297.92 L -1664 1518.08 C -1664 1598.6154 -1729.3846 1664 -1809.92 1664 L -2030.08 1664 C -2110.6154 1664 -2176 1598.6154 -2176 1518.08 L -2176 1297.92 C -2176 1217.3846 -2110.6154 1152 -2030.08 1152 Z" stroke-linecap="round" />
</g>
<g transform="matrix(0.39 0 0 0.39 200 200)"  >
<linearGradient id="SVGID__lgradient_29_22" gradientUnits="userSpaceOnUse" gradientTransform="matrix(275 0 0 275 -2057.5 1270.5)"  x1="0" y1="0.5" x2="1" y2="0.5">
<stop offset="0%" style="stop-color:rgb(255,255,255);stop-opacity: 1"/>
<stop offset="100%" style="stop-color:rgb(230,229,229);stop-opacity: 1"/>
</linearGradient>
<path style="stroke: none; stroke-width: 1; stroke-dasharray: none; stroke-linecap: butt; stroke-dashoffset: 0; stroke-linejoin: miter; stroke-miterlimit: 4; fill: url(#SVGID__lgradient_29_22); fill-rule: evenodd; opacity: 1;"  transform=" translate(1920, -1408)" d="M -1920 1451.4598 C -1944.0024 1451.4598 -1963.4598 1432.0024 -1963.4598 1408 C -1963.4598 1383.9976 -1944.0019 1364.5402 -1920 1364.5402 C -1895.9976 1364.5402 -1876.5402 1383.9976 -1876.5402 1408 C -1876.5402 1432.0019 -1895.9981 1451.4598 -1920 1451.4598 L -1920 1451.4598 L -1920 1451.4598 Z M -1920 1336.8752 C -1959.2182 1336.8752 -1991.1248 1368.7817 -1991.1248 1407.9995 C -1991.1248 1447.2173 -1959.2182 1479.1243 -1920 1479.1243 C -1880.7818 1479.1243 -1848.8752 1447.2178 -1848.8752 1407.9995 C -1848.8752 1368.7812 -1880.7818 1336.8752 -1920 1336.8752 L -1920 1336.8752 L -1920 1336.8752 Z M -1810.165 1463.576 C -1810.165 1493.5422 -1834.4578 1517.835 -1864.4239 1517.835 L -1975.5761 1517.835 C -2005.5422 1517.835 -2029.835 1493.5422 -2029.835 1463.576 L -2029.835 1352.424 C -2029.835 1322.4573 -2005.5422 1298.165 -1975.5761 1298.165 L -1864.4239 1298.165 C -1834.4578 1298.165 -1810.165 1322.4573 -1810.165 1352.424 L -1810.165 1463.576 L -1810.165 1463.576 L -1810.165 1463.576 L -1810.165 1463.576 Z M -1864.4239 1270.5 L -1975.5761 1270.5 C -2020.7491 1270.5 -2057.5 1307.2509 -2057.5 1352.424 L -2057.5 1463.576 C -2057.5 1508.7491 -2020.7491 1545.5 -1975.5761 1545.5 L -1864.4239 1545.5 C -1819.2509 1545.5 -1782.5 1508.7491 -1782.5 1463.576 L -1782.5 1352.424 C -1782.5005 1307.2509 -1819.2514 1270.5 -1864.4239 1270.5 L -1864.4239 1270.5 L -1864.4239 1270.5 Z M -1865.7805 1337.4092 C -1865.7805 1328.0029 -1858.1437 1320.3663 -1848.7375 1320.3663 C -1839.3312 1320.3663 -1831.6945 1328.0029 -1831.6945 1337.4092 C -1831.6945 1346.8155 -1839.3312 1354.4522 -1848.7375 1354.4522 C -1858.1437 1354.4522 -1865.7805 1346.8155 -1865.7805 1337.4092 Z" stroke-linecap="round" />
</g>
</svg>