<?xml version="1.0" encoding="UTF-8" standalone="no" ?>
<!DOCTYPE svg PUBLIC "-//W3C//DTD SVG 1.1//EN" "http://www.w3.org/Graphics/SVG/1.1/DTD/svg11.dtd">
<svg xmlns="http://www.w3.org/2000/svg" xmlns:xlink="http://www.w3.org/1999/xlink" version="1.1" width="400" height="400" viewBox="0 0 400 400" xml:space="preserve">
<desc>Created with Fabric.js 3.6.2</desc>
<defs>
</defs>
<g transform="matrix(1.56 0 0 1.56 200 200)" id="Layer_1"  >
<circle style="stroke: none; stroke-width: 1; stroke-dasharray: none; stroke-linecap: butt; stroke-dashoffset: 0; stroke-linejoin: miter; stroke-miterlimit: 4; fill: rgb(226,26,32); fill-rule: nonzero; opacity: 1;"  cx="0" cy="0" r="64" />
</g>
<g transform="matrix(1.56 0 0 1.56 199.99 200)" id="Layer_1"  >
<path style="stroke: none; stroke-width: 1; stroke-dasharray: none; stroke-linecap: butt; stroke-dashoffset: 0; stroke-linejoin: miter; stroke-miterlimit: 4; fill: rgb(255,255,255); fill-rule: evenodd; opacity: 1;"  transform=" translate(-64, -64)" d="M 98.62 53.92 c -0.49 -6.75 -1.72 -13.72 -10.35 -14.23 a 426.5 426.5 0 0 0 -48.55 0 c -8.63 0.5 -9.86 7.48 -10.35 14.23 a 135 135 0 0 0 0 20.16 c 0.49 6.75 1.72 13.72 10.35 14.23 a 426.5 426.5 0 0 0 48.55 0 c 8.63 -0.5 9.86 -7.48 10.35 -14.23 A 135 135 0 0 0 98.62 53.92 Z M 57 73 V 53 L 76 63 Z" stroke-linecap="round" />
</g>
</svg>